<?xml version="1.0" encoding="utf-8"?>
<!-- Generator: Adobe Illustrator 22.1.0, SVG Export Plug-In . SVG Version: 6.00 Build 0)  -->
<svg version="1.1"
	 id="Layer_1" image-rendering="optimizeQuality" text-rendering="geometricPrecision" shape-rendering="geometricPrecision"
	 xmlns="http://www.w3.org/2000/svg" xmlns:xlink="http://www.w3.org/1999/xlink" x="0px" y="0px" viewBox="0 0 580 580"
	 style="enable-background:new 0 0 580 580;" xml:space="preserve">
<style type="text/css">
	.st0{fill:#FFFFFF;}
</style>
<title>copy icon</title>
<desc>copy icon from the IconExperience.com I-Collection. Copyright by INCORS GmbH (www.incors.com).</desc>
<path id="curve29" class="st0" d="M260,30c8.5,0,16.5,3.6,22.2,9.9l70.2,70.1H270V60c0-5.5-4.5-10-10-10H70v380h120v20H50V30H260z
	 M290,75.9V110h34.1L290,75.9z M110,350h80v20h-80V350z M110,290h80v20h-80V290z M110,230h80v20h-80V230z M110,170h80v20h-80V170z
	 M110,110h80v20h-80V110z"/>
<path id="curve28" class="st0" d="M420,130c8.5,0,16.5,3.6,22.2,9.9l79,78.9c5.4,5.5,8.8,13,8.8,21.2v310H210V130H420z M450,175.9
	V210h34.1L450,175.9z M420,150H230v380h280V240c0-5.5-4.5-10-10-10h-70v-70C430,154.5,425.5,150,420,150z M270,210h140v20H270V210z
	 M270,270h200v20H270V270z M270,330h200v20H270V330z M270,390h200v20H270V390z M270,450h200v20H270V450z"/>
</svg>
