<?xml version="1.0" encoding="utf-8"?>
<!-- Generator: Adobe Illustrator 22.1.0, SVG Export Plug-In . SVG Version: 6.00 Build 0)  -->
<svg version="1.1"
	 id="Layer_1" image-rendering="optimizeQuality" text-rendering="geometricPrecision" shape-rendering="geometricPrecision"
	 xmlns="http://www.w3.org/2000/svg" xmlns:xlink="http://www.w3.org/1999/xlink" x="0px" y="0px" viewBox="0 0 580 580"
	 style="enable-background:new 0 0 580 580;" xml:space="preserve">
<style type="text/css">
	.st0{fill:#FFFFFF;}
</style>
<title>magic_wand icon</title>
<desc>magic_wand icon from the IconExperience.com I-Collection. Copyright by INCORS GmbH (www.incors.com).</desc>
<path id="curve29" class="st0" d="M226.7,110.1l86.7-0.2l-70.3,50.9l27,82.4L200,192.1l-70.1,51.1l27-82.4l-70.3-50.9l86.7,0.2
	L200,27.5L226.7,110.1z M200,92.5l-12.1,37.6l-39.6-0.1l32.1,23.2l-12.3,37.6l31.9-23.3l31.9,23.3l-12.3-37.6l32.1-23.2l-39.6,0.1
	L200,92.5z"/>
<path id="curve28" class="st0" d="M133.8,541.9c-8.4,8.3-23.2,3-37.5-8.3c-9.1-7.2-17.7-15.8-24.9-24.9
	c-11.3-14.4-16.7-29.2-8.3-37.5L466.2,68.1c8.4-8.4,23.1-3,37.6,8.3c8.8,7,17.8,16,24.8,24.9c11.3,14.4,16.7,29.1,8.3,37.5
	C502.6,173.1,133.9,541.9,133.8,541.9z M184.5,462.9c-14.9-8.4-34-27.5-42.4-42.4l-64.8,64.8c-2.4,2.4,42.4,42.4,42.4,42.4
	L184.5,462.9z M415.5,147.1c14.7,8.3,34.1,27.7,42.4,42.4l64.8-64.8c1.1-1.1-41.3-43.5-42.4-42.4L415.5,147.1z M197.5,450L445,202.5
	c0-0.1-17.6-20-20.1-22.4c-2.4-2.5-22.3-20.1-22.4-20.1L155,407.5c-0.2,0.2,20.1,21.9,20.1,22.5C177.6,432.5,197.4,450,197.5,450z"
	/>
</svg>
